<svg width="36" height="37" viewBox="0 0 36 37" fill="none" xmlns="http://www.w3.org/2000/svg">
<g clip-path="url(#clip0_60_2943)">
<path d="M18 0.5C13.1152 0.5 12.501 0.5225 10.5817 0.608C8.6625 0.698 7.35525 0.9995 6.21 1.445C5.00871 1.89684 3.92061 2.60561 3.02175 3.52175C2.10617 4.42107 1.39749 5.50904 0.945 6.71C0.4995 7.853 0.19575 9.1625 0.108 11.075C0.0225 12.9987 0 13.6108 0 18.5023C0 23.3893 0.0225 24.0013 0.108 25.9205C0.198 27.8375 0.4995 29.1447 0.945 30.29C1.40625 31.4735 2.0205 32.477 3.02175 33.4782C4.02075 34.4795 5.02425 35.096 6.20775 35.555C7.35525 36.0005 8.66025 36.3042 10.5773 36.392C12.4988 36.4775 13.1108 36.5 18 36.5C22.8892 36.5 23.499 36.4775 25.4205 36.392C27.3353 36.302 28.647 36.0005 29.7922 35.555C30.9928 35.1029 32.0801 34.3942 32.9782 33.4782C33.9795 32.477 34.5938 31.4735 35.055 30.29C35.4982 29.1447 35.802 27.8375 35.892 25.9205C35.9775 24.0013 36 23.3892 36 18.5C36 13.6108 35.9775 12.9988 35.892 11.0773C35.802 9.1625 35.4982 7.853 35.055 6.71C34.6026 5.50901 33.8939 4.42102 32.9782 3.52175C32.0797 2.60527 30.9915 1.89645 29.79 1.445C28.6425 0.9995 27.333 0.69575 25.4182 0.608C23.4967 0.5225 22.887 0.5 17.9955 0.5H18.0023H18ZM16.3867 3.7445H18.0023C22.8083 3.7445 23.3775 3.76025 25.2743 3.848C27.0292 3.92675 27.9832 4.2215 28.6178 4.46675C29.457 4.793 30.0578 5.1845 30.6877 5.8145C31.3177 6.4445 31.707 7.043 32.0333 7.8845C32.2808 8.51675 32.5732 9.47075 32.652 11.2257C32.7397 13.1225 32.7578 13.6918 32.7578 18.4955C32.7578 23.2992 32.7397 23.8707 32.652 25.7675C32.5732 27.5225 32.2785 28.4743 32.0333 29.1087C31.7447 29.8903 31.2841 30.597 30.6855 31.1765C30.0555 31.8065 29.457 32.1958 28.6155 32.522C27.9855 32.7695 27.0315 33.062 25.2743 33.143C23.3775 33.2285 22.8083 33.2487 18.0023 33.2487C13.1963 33.2487 12.6248 33.2285 10.728 33.143C8.973 33.062 8.02125 32.7695 7.38675 32.522C6.60487 32.2338 5.89753 31.7741 5.31675 31.1765C4.71769 30.5961 4.25638 29.8887 3.96675 29.1065C3.7215 28.4742 3.42675 27.5203 3.348 25.7653C3.2625 23.8685 3.2445 23.2992 3.2445 18.491C3.2445 13.685 3.2625 13.118 3.348 11.2212C3.429 9.46625 3.7215 8.51225 3.969 7.87775C4.29525 7.0385 4.68675 6.43775 5.31675 5.80775C5.94675 5.17775 6.54525 4.7885 7.38675 4.46225C8.02125 4.21475 8.973 3.92225 10.728 3.84125C12.3885 3.76475 13.032 3.74225 16.3867 3.74V3.7445ZM27.6097 6.7325C27.3261 6.7325 27.0452 6.78837 26.7832 6.89692C26.5211 7.00547 26.283 7.16457 26.0824 7.36515C25.8818 7.56572 25.7227 7.80384 25.6142 8.0659C25.5056 8.32797 25.4497 8.60884 25.4497 8.8925C25.4497 9.17616 25.5056 9.45703 25.6142 9.7191C25.7227 9.98116 25.8818 10.2193 26.0824 10.4199C26.283 10.6204 26.5211 10.7795 26.7832 10.8881C27.0452 10.9966 27.3261 11.0525 27.6097 11.0525C28.1826 11.0525 28.732 10.8249 29.1371 10.4199C29.5422 10.0148 29.7698 9.46537 29.7698 8.8925C29.7698 8.31963 29.5422 7.77023 29.1371 7.36515C28.732 6.96007 28.1826 6.7325 27.6097 6.7325ZM18.0023 9.257C16.7762 9.23787 15.5585 9.46284 14.4202 9.91882C13.2819 10.3748 12.2457 11.0527 11.3718 11.913C10.498 12.7732 9.80407 13.7988 9.33039 14.9298C8.85672 16.0609 8.61278 17.2749 8.61278 18.5011C8.61278 19.7274 8.85672 20.9414 9.33039 22.0724C9.80407 23.2035 10.498 24.229 11.3718 25.0893C12.2457 25.9496 13.2819 26.6275 14.4202 27.0834C15.5585 27.5394 16.7762 27.7644 18.0023 27.7453C20.429 27.7074 22.7435 26.7168 24.4462 24.9873C26.1489 23.2578 27.1033 20.9281 27.1033 18.5011C27.1033 16.0741 26.1489 13.7444 24.4462 12.0149C22.7435 10.2854 20.429 9.29486 18.0023 9.257ZM18.0023 12.4993C19.5937 12.4993 21.1201 13.1315 22.2454 14.2568C23.3708 15.3822 24.003 16.9085 24.003 18.5C24.003 20.0915 23.3708 21.6178 22.2454 22.7432C21.1201 23.8685 19.5937 24.5007 18.0023 24.5007C16.4108 24.5007 14.8844 23.8685 13.7591 22.7432C12.6337 21.6178 12.0015 20.0915 12.0015 18.5C12.0015 16.9085 12.6337 15.3822 13.7591 14.2568C14.8844 13.1315 16.4108 12.4993 18.0023 12.4993Z" fill="white"/>
</g>
<defs>
<clipPath id="clip0_60_2943">
<rect width="36" height="36" fill="white" transform="translate(0 0.5)"/>
</clipPath>
</defs>
</svg>
