<svg width="29" height="29" viewBox="0 0 29 29" fill="none" xmlns="http://www.w3.org/2000/svg">
<path d="M4 11.0665V19.75C4 20.6783 4.36875 21.5685 5.02513 22.2249C5.6815 22.8813 6.57174 23.25 7.5 23.25H21.5C22.4283 23.25 23.3185 22.8813 23.9749 22.2249C24.6313 21.5685 25 20.6783 25 19.75V9.25C25 8.32174 24.6313 7.4315 23.9749 6.77513C23.3185 6.11875 22.4283 5.75 21.5 5.75H7.5C6.57174 5.75 5.6815 6.11875 5.02513 6.77513C4.36875 7.4315 4 8.32174 4 9.25V11.0665ZM7.5 7.5H21.5C21.9641 7.5 22.4092 7.68437 22.7374 8.01256C23.0656 8.34075 23.25 8.78587 23.25 9.25V10.545L14.5 15.256L5.75 10.545V9.25C5.75 8.78587 5.93437 8.34075 6.26256 8.01256C6.59075 7.68437 7.03587 7.5 7.5 7.5ZM5.75 12.533L14.0852 17.02C14.2127 17.0886 14.3552 17.1245 14.5 17.1245C14.6448 17.1245 14.7873 17.0886 14.9148 17.02L23.25 12.533V19.75C23.25 20.2141 23.0656 20.6592 22.7374 20.9874C22.4092 21.3156 21.9641 21.5 21.5 21.5H7.5C7.03587 21.5 6.59075 21.3156 6.26256 20.9874C5.93437 20.6592 5.75 20.2141 5.75 19.75V12.533Z" fill="#484848"/>
</svg>
