<svg width="28" height="29" viewBox="0 0 28 29" fill="none" xmlns="http://www.w3.org/2000/svg">
<path d="M3.5 11.0665V19.75C3.5 20.6783 3.86875 21.5685 4.52513 22.2249C5.1815 22.8813 6.07174 23.25 7 23.25H21C21.9283 23.25 22.8185 22.8813 23.4749 22.2249C24.1313 21.5685 24.5 20.6783 24.5 19.75V9.25C24.5 8.32174 24.1313 7.4315 23.4749 6.77513C22.8185 6.11875 21.9283 5.75 21 5.75H7C6.07174 5.75 5.1815 6.11875 4.52513 6.77513C3.86875 7.4315 3.5 8.32174 3.5 9.25V11.0665ZM7 7.5H21C21.4641 7.5 21.9092 7.68437 22.2374 8.01256C22.5656 8.34075 22.75 8.78587 22.75 9.25V10.545L14 15.256L5.25 10.545V9.25C5.25 8.78587 5.43437 8.34075 5.76256 8.01256C6.09075 7.68437 6.53587 7.5 7 7.5ZM5.25 12.533L13.5852 17.02C13.7127 17.0886 13.8552 17.1245 14 17.1245C14.1448 17.1245 14.2873 17.0886 14.4148 17.02L22.75 12.533V19.75C22.75 20.2141 22.5656 20.6592 22.2374 20.9874C21.9092 21.3156 21.4641 21.5 21 21.5H7C6.53587 21.5 6.09075 21.3156 5.76256 20.9874C5.43437 20.6592 5.25 20.2141 5.25 19.75V12.533Z" fill="#484848"/>
</svg>
