<svg width="100" height="100" viewBox="0 0 100 100" fill="none" xmlns="http://www.w3.org/2000/svg">
<path d="M0 50C0 22.3858 22.3858 0 50 0H100V50C100 77.6142 77.6142 100 50 100H0V50Z" fill="#E8F5E9"/>
<path d="M77.8975 47.0874L55.8525 33.0449C55.3243 32.7098 54.7159 32.5224 54.0907 32.5022C53.4655 32.482 52.8463 32.6297 52.2975 32.9299C51.7538 33.2275 51.3001 33.6658 50.9839 34.1988C50.6677 34.7319 50.5005 35.3401 50.5 35.9599V46.2099L29.8525 33.0449C29.3243 32.7098 28.7159 32.5224 28.0907 32.5022C27.4655 32.482 26.8463 32.6297 26.2975 32.9299C25.7538 33.2275 25.3001 33.6658 24.9839 34.1988C24.6677 34.7319 24.5005 35.3401 24.5 35.9599V64.0399C24.5005 64.6597 24.6677 65.268 24.9839 65.8011C25.3001 66.3341 25.7538 66.7724 26.2975 67.0699C26.8463 67.3702 27.4655 67.5179 28.0907 67.4977C28.7159 67.4775 29.3243 67.2901 29.8525 66.9549L50.5 53.8024V64.0399C50.5005 64.6597 50.6677 65.268 50.9839 65.8011C51.3001 66.3341 51.7538 66.7724 52.2975 67.0699C52.8463 67.3702 53.4655 67.5179 54.0907 67.4977C54.7159 67.4775 55.3243 67.2901 55.8525 66.9549L77.8975 52.9124C78.3885 52.6015 78.793 52.1714 79.0732 51.6622C79.3534 51.153 79.5004 50.5812 79.5004 49.9999C79.5004 49.4187 79.3534 48.8469 79.0732 48.3377C78.793 47.8285 78.3885 47.3984 77.8975 47.0874ZM50.2875 50.3824L28.25 64.4224C28.1763 64.4712 28.0905 64.4984 28.0021 64.5011C27.9138 64.5037 27.8265 64.4817 27.75 64.4374C27.6745 64.4023 27.6107 64.3461 27.5664 64.2756C27.522 64.2051 27.499 64.1232 27.5 64.0399V35.9599C27.499 35.8767 27.522 35.7948 27.5664 35.7243C27.6107 35.6538 27.6745 35.5976 27.75 35.5624C27.8262 35.5193 27.9124 35.4968 28 35.4974C28.0893 35.4997 28.176 35.5275 28.25 35.5774L50.2975 49.6174C50.3626 49.6578 50.4164 49.7141 50.4536 49.7811C50.4909 49.848 50.5104 49.9233 50.5104 49.9999C50.5104 50.0766 50.4909 50.1519 50.4536 50.2188C50.4164 50.2858 50.3626 50.3421 50.2975 50.3824H50.2875ZM76.2875 50.3824L54.25 64.4224C54.1763 64.4712 54.0905 64.4984 54.0021 64.5011C53.9138 64.5037 53.8265 64.4817 53.75 64.4374C53.6745 64.4023 53.6107 64.3461 53.5664 64.2756C53.522 64.2051 53.499 64.1232 53.5 64.0399V35.9599C53.499 35.8767 53.522 35.7948 53.5664 35.7243C53.6107 35.6538 53.6745 35.5976 53.75 35.5624C53.8262 35.5193 53.9124 35.4968 54 35.4974C54.0893 35.4997 54.176 35.5275 54.25 35.5774L76.2975 49.6174C76.3626 49.6578 76.4164 49.7141 76.4536 49.7811C76.4909 49.848 76.5104 49.9233 76.5104 49.9999C76.5104 50.0766 76.4909 50.1519 76.4536 50.2188C76.4164 50.2858 76.3626 50.3421 76.2975 50.3824H76.2875Z" fill="#484848"/>
</svg>
