<svg width="100" height="100" viewBox="0 0 100 100" fill="none" xmlns="http://www.w3.org/2000/svg">
<path d="M0 50C0 22.3858 22.3858 0 50 0H100V50C100 77.6142 77.6142 100 50 100H0V50Z" fill="#E8F5E9"/>
<g clip-path="url(#clip0_55_164)">
<path d="M65.25 57.4583C64.2222 60.8194 62.3056 63.5278 59.5 65.5833C56.6944 67.6389 53.5278 68.6667 50 68.6667C46.4722 68.6667 43.3056 67.6389 40.5 65.5833C37.6944 63.5278 35.7778 60.8194 34.75 57.4583C34.5278 56.7639 34.5833 56.0903 34.9167 55.4375C35.25 54.7847 35.7778 54.3472 36.5 54.125C37.1944 53.9028 37.8681 53.9583 38.5208 54.2917C39.1736 54.625 39.6111 55.1528 39.8333 55.875C40.5278 58.0972 41.8125 59.8958 43.6875 61.2708C45.5625 62.6458 47.6667 63.3333 50 63.3333C52.3333 63.3333 54.4375 62.6458 56.3125 61.2708C58.1875 59.8958 59.4722 58.0972 60.1667 55.875C60.3889 55.1528 60.8333 54.625 61.5 54.2917C62.1667 53.9583 62.8472 53.9028 63.5417 54.125C64.2361 54.3472 64.75 54.7847 65.0833 55.4375C65.4167 56.0903 65.4722 56.7639 65.25 57.4583ZM44.6667 39.3333C44.6667 40.8056 44.1458 42.0625 43.1042 43.1042C42.0625 44.1458 40.8056 44.6667 39.3333 44.6667C37.8611 44.6667 36.6042 44.1458 35.5625 43.1042C34.5208 42.0625 34 40.8056 34 39.3333C34 37.8611 34.5208 36.6042 35.5625 35.5625C36.6042 34.5208 37.8611 34 39.3333 34C40.8056 34 42.0625 34.5208 43.1042 35.5625C44.1458 36.6042 44.6667 37.8611 44.6667 39.3333ZM66 39.3333C66 40.8056 65.4792 42.0625 64.4375 43.1042C63.3958 44.1458 62.1389 44.6667 60.6667 44.6667C59.1944 44.6667 57.9375 44.1458 56.8958 43.1042C55.8542 42.0625 55.3333 40.8056 55.3333 39.3333C55.3333 37.8611 55.8542 36.6042 56.8958 35.5625C57.9375 34.5208 59.1944 34 60.6667 34C62.1389 34 63.3958 34.5208 64.4375 35.5625C65.4792 36.6042 66 37.8611 66 39.3333ZM76.6667 50C76.6667 46.3889 75.9583 42.9375 74.5417 39.6458C73.125 36.3542 71.2292 33.5208 68.8542 31.1458C66.4792 28.7708 63.6458 26.875 60.3542 25.4583C57.0625 24.0417 53.6111 23.3333 50 23.3333C46.3889 23.3333 42.9375 24.0417 39.6458 25.4583C36.3542 26.875 33.5208 28.7708 31.1458 31.1458C28.7708 33.5208 26.875 36.3542 25.4583 39.6458C24.0417 42.9375 23.3333 46.3889 23.3333 50C23.3333 53.6111 24.0417 57.0625 25.4583 60.3542C26.875 63.6458 28.7708 66.4792 31.1458 68.8542C33.5208 71.2292 36.3542 73.125 39.6458 74.5417C42.9375 75.9583 46.3889 76.6667 50 76.6667C53.6111 76.6667 57.0625 75.9583 60.3542 74.5417C63.6458 73.125 66.4792 71.2292 68.8542 68.8542C71.2292 66.4792 73.125 63.6458 74.5417 60.3542C75.9583 57.0625 76.6667 53.6111 76.6667 50ZM82 50C82 55.8056 80.5694 61.1597 77.7083 66.0625C74.8472 70.9653 70.9653 74.8472 66.0625 77.7083C61.1597 80.5694 55.8056 82 50 82C44.1944 82 38.8403 80.5694 33.9375 77.7083C29.0347 74.8472 25.1528 70.9653 22.2917 66.0625C19.4306 61.1597 18 55.8056 18 50C18 44.1944 19.4306 38.8403 22.2917 33.9375C25.1528 29.0347 29.0347 25.1528 33.9375 22.2917C38.8403 19.4306 44.1944 18 50 18C55.8056 18 61.1597 19.4306 66.0625 22.2917C70.9653 25.1528 74.8472 29.0347 77.7083 33.9375C80.5694 38.8403 82 44.1944 82 50Z" fill="#484848"/>
</g>
<defs>
<clipPath id="clip0_55_164">
<rect width="64" height="64" fill="white" transform="translate(18 18)"/>
</clipPath>
</defs>
</svg>
