<svg width="100" height="100" viewBox="0 0 100 100" fill="none" xmlns="http://www.w3.org/2000/svg">
<path d="M0 50C0 22.3858 22.3858 0 50 0H100V50C100 77.6142 77.6142 100 50 100H0V50Z" fill="#E8F5E9"/>
<path d="M79.3333 28.9334V24.1334L74.5333 23.6C74.2667 23.6 72.6667 23.3334 70 23.3334C59.0667 23.3334 51.0667 26.5334 46.5333 32.1334C43.0667 30 38.2667 28.6667 32.6667 28.6667C30 28.6667 28.1333 28.9334 28.1333 28.9334L23.0667 29.7334L23.3333 34.2667C23.6 42.2667 27.6 57.4667 41.4667 57.4667H42V66.5334C31.8667 67.8667 23.3333 71.3334 23.3333 71.3334V76.6667H76.6667V71.3334C76.6667 71.3334 68.1333 67.8667 58 66.5334V58C74.8 57.7334 79.3333 38.8 79.3333 28.9334ZM50 66H47.3333V51.0667C47.3333 51.0667 46.8 42 39.3333 42C39.3333 42 43.3333 44.1334 44.4 51.8667C43.3333 52.1334 42.2667 52.1334 41.4667 52.1334C29.2 52.1334 28.6667 34.2667 28.6667 34.2667C28.6667 34.2667 30.2667 34 32.6667 34C37.7333 34 46 35.0667 48.4 42.2667C49.7333 30.2667 63.3333 28.6667 70 28.6667C72.4 28.6667 74 28.9334 74 28.9334C74 28.9334 74 52.9334 57.2 52.9334H55.3333C55.3333 47.6 60.6667 39.6 60.6667 39.6C52.6667 42.2667 52.6667 52.6667 52.6667 52.6667V66H50Z" fill="#484848"/>
</svg>
