<svg width="28" height="28" viewBox="0 0 28 28" fill="none" xmlns="http://www.w3.org/2000/svg">
<path d="M6.4165 18.6667C12.2498 21.5834 15.7498 21.5834 21.5832 18.6667" stroke="#484848" stroke-width="1.75" stroke-linecap="round" stroke-linejoin="round"/>
<path d="M18.0833 20.4167L19.25 22.7501C19.25 22.7501 24.1162 21.2007 25.6667 18.6667C25.6667 17.5001 26.285 9.16191 22.1667 6.41675C20.4167 5.25008 17.5 4.66675 17.5 4.66675L16.3333 7.00008H14" stroke="#484848" stroke-width="1.75" stroke-linecap="round" stroke-linejoin="round"/>
<path d="M9.94932 20.4167L8.78265 22.7501C8.78265 22.7501 3.91648 21.2007 2.36598 18.6667C2.36598 17.5001 1.74765 9.16191 5.86598 6.41675C7.61598 5.25008 10.5327 4.66675 10.5327 4.66675L11.6993 7.00008H14.0327" stroke="#484848" stroke-width="1.75" stroke-linecap="round" stroke-linejoin="round"/>
<path d="M9.9165 16.3334C8.9505 16.3334 8.1665 15.2892 8.1665 14.0001C8.1665 12.7109 8.9505 11.6667 9.9165 11.6667C10.8825 11.6667 11.6665 12.7109 11.6665 14.0001C11.6665 15.2892 10.8825 16.3334 9.9165 16.3334ZM18.0832 16.3334C17.1172 16.3334 16.3332 15.2892 16.3332 14.0001C16.3332 12.7109 17.1172 11.6667 18.0832 11.6667C19.0492 11.6667 19.8332 12.7109 19.8332 14.0001C19.8332 15.2892 19.0492 16.3334 18.0832 16.3334Z" stroke="#484848" stroke-width="1.75" stroke-linecap="round" stroke-linejoin="round"/>
</svg>
