<svg width="29" height="28" viewBox="0 0 29 28" fill="none" xmlns="http://www.w3.org/2000/svg">
<path d="M6.91675 18.6667C12.7501 21.5833 16.2501 21.5833 22.0834 18.6667" stroke="#484848" stroke-width="1.75" stroke-linecap="round" stroke-linejoin="round"/>
<path d="M18.5833 20.4167L19.75 22.75C19.75 22.75 24.6162 21.2007 26.1667 18.6667C26.1667 17.5 26.785 9.16184 22.6667 6.41667C20.9167 5.25001 18 4.66667 18 4.66667L16.8333 7.00001H14.5" stroke="#484848" stroke-width="1.75" stroke-linecap="round" stroke-linejoin="round"/>
<path d="M10.4493 20.4167L9.28265 22.75C9.28265 22.75 4.41648 21.2007 2.86598 18.6667C2.86598 17.5 2.24765 9.16184 6.36598 6.41667C8.11598 5.25001 11.0327 4.66667 11.0327 4.66667L12.1993 7.00001H14.5327" stroke="#484848" stroke-width="1.75" stroke-linecap="round" stroke-linejoin="round"/>
<path d="M10.4167 16.3333C9.45075 16.3333 8.66675 15.2892 8.66675 14C8.66675 12.7108 9.45075 11.6667 10.4167 11.6667C11.3827 11.6667 12.1667 12.7108 12.1667 14C12.1667 15.2892 11.3827 16.3333 10.4167 16.3333ZM18.5834 16.3333C17.6174 16.3333 16.8334 15.2892 16.8334 14C16.8334 12.7108 17.6174 11.6667 18.5834 11.6667C19.5494 11.6667 20.3334 12.7108 20.3334 14C20.3334 15.2892 19.5494 16.3333 18.5834 16.3333Z" stroke="#484848" stroke-width="1.75" stroke-linecap="round" stroke-linejoin="round"/>
</svg>
