<svg width="28" height="28" viewBox="0 0 28 28" fill="none" xmlns="http://www.w3.org/2000/svg">
<path d="M6.41666 18.6667C12.25 21.5834 15.75 21.5834 21.5833 18.6667" stroke="#484848" stroke-width="1.75" stroke-linecap="round" stroke-linejoin="round"/>
<path d="M18.0833 20.4167L19.25 22.7501C19.25 22.7501 24.1162 21.2007 25.6667 18.6667C25.6667 17.5001 26.285 9.16191 22.1667 6.41675C20.4167 5.25008 17.5 4.66675 17.5 4.66675L16.3333 7.00008H14" stroke="#484848" stroke-width="1.75" stroke-linecap="round" stroke-linejoin="round"/>
<path d="M9.94933 20.4167L8.78267 22.7501C8.78267 22.7501 3.9165 21.2007 2.366 18.6667C2.366 17.5001 1.74767 9.16191 5.866 6.41675C7.616 5.25008 10.5327 4.66675 10.5327 4.66675L11.6993 7.00008H14.0327" stroke="#484848" stroke-width="1.75" stroke-linecap="round" stroke-linejoin="round"/>
<path d="M9.91666 16.3334C8.95066 16.3334 8.16666 15.2892 8.16666 14.0001C8.16666 12.7109 8.95066 11.6667 9.91666 11.6667C10.8827 11.6667 11.6667 12.7109 11.6667 14.0001C11.6667 15.2892 10.8827 16.3334 9.91666 16.3334ZM18.0833 16.3334C17.1173 16.3334 16.3333 15.2892 16.3333 14.0001C16.3333 12.7109 17.1173 11.6667 18.0833 11.6667C19.0493 11.6667 19.8333 12.7109 19.8333 14.0001C19.8333 15.2892 19.0493 16.3334 18.0833 16.3334Z" stroke="#484848" stroke-width="1.75" stroke-linecap="round" stroke-linejoin="round"/>
</svg>
