<svg width="28" height="28" viewBox="0 0 28 28" fill="none" xmlns="http://www.w3.org/2000/svg">
<path d="M6.41675 18.6667C12.2501 21.5833 15.7501 21.5833 21.5834 18.6667" stroke="#484848" stroke-width="1.75" stroke-linecap="round" stroke-linejoin="round"/>
<path d="M18.0833 20.4167L19.25 22.75C19.25 22.75 24.1162 21.2007 25.6667 18.6667C25.6667 17.5 26.285 9.16184 22.1667 6.41667C20.4167 5.25001 17.5 4.66667 17.5 4.66667L16.3333 7.00001H14" stroke="#484848" stroke-width="1.75" stroke-linecap="round" stroke-linejoin="round"/>
<path d="M9.94932 20.4167L8.78265 22.75C8.78265 22.75 3.91648 21.2007 2.36598 18.6667C2.36598 17.5 1.74765 9.16184 5.86598 6.41667C7.61598 5.25001 10.5327 4.66667 10.5327 4.66667L11.6993 7.00001H14.0327" stroke="#484848" stroke-width="1.75" stroke-linecap="round" stroke-linejoin="round"/>
<path d="M9.91675 16.3333C8.95075 16.3333 8.16675 15.2892 8.16675 14C8.16675 12.7108 8.95075 11.6667 9.91675 11.6667C10.8827 11.6667 11.6667 12.7108 11.6667 14C11.6667 15.2892 10.8827 16.3333 9.91675 16.3333ZM18.0834 16.3333C17.1174 16.3333 16.3334 15.2892 16.3334 14C16.3334 12.7108 17.1174 11.6667 18.0834 11.6667C19.0494 11.6667 19.8334 12.7108 19.8334 14C19.8334 15.2892 19.0494 16.3333 18.0834 16.3333Z" stroke="#484848" stroke-width="1.75" stroke-linecap="round" stroke-linejoin="round"/>
</svg>
