<svg width="36" height="37" viewBox="0 0 36 37" fill="none" xmlns="http://www.w3.org/2000/svg">
<path d="M8.25 24.5C15.75 28.25 20.25 28.25 27.75 24.5" stroke="white" stroke-width="2.25" stroke-linecap="round" stroke-linejoin="round"/>
<path d="M23.25 26.75L24.75 29.75C24.75 29.75 31.0065 27.758 33 24.5C33 23 33.795 12.2795 28.5 8.75C26.25 7.25 22.5 6.5 22.5 6.5L21 9.5H18" stroke="white" stroke-width="2.25" stroke-linecap="round" stroke-linejoin="round"/>
<path d="M12.792 26.75L11.292 29.75C11.292 29.75 5.0355 27.758 3.042 24.5C3.042 23 2.247 12.2795 7.542 8.75C9.792 7.25 13.542 6.5 13.542 6.5L15.042 9.5H18.042" stroke="white" stroke-width="2.25" stroke-linecap="round" stroke-linejoin="round"/>
<path d="M12.75 21.5C11.508 21.5 10.5 20.1575 10.5 18.5C10.5 16.8425 11.508 15.5 12.75 15.5C13.992 15.5 15 16.8425 15 18.5C15 20.1575 13.992 21.5 12.75 21.5ZM23.25 21.5C22.008 21.5 21 20.1575 21 18.5C21 16.8425 22.008 15.5 23.25 15.5C24.492 15.5 25.5 16.8425 25.5 18.5C25.5 20.1575 24.492 21.5 23.25 21.5Z" stroke="white" stroke-width="2.25" stroke-linecap="round" stroke-linejoin="round"/>
</svg>
