<svg width="29" height="28" viewBox="0 0 29 28" fill="none" xmlns="http://www.w3.org/2000/svg">
<path d="M6.9165 18.6667C12.7498 21.5834 16.2498 21.5834 22.0832 18.6667" stroke="#484848" stroke-width="1.75" stroke-linecap="round" stroke-linejoin="round"/>
<path d="M18.5833 20.4167L19.75 22.7501C19.75 22.7501 24.6162 21.2007 26.1667 18.6667C26.1667 17.5001 26.785 9.16191 22.6667 6.41675C20.9167 5.25008 18 4.66675 18 4.66675L16.8333 7.00008H14.5" stroke="#484848" stroke-width="1.75" stroke-linecap="round" stroke-linejoin="round"/>
<path d="M10.4493 20.4167L9.28265 22.7501C9.28265 22.7501 4.41648 21.2007 2.86598 18.6667C2.86598 17.5001 2.24765 9.16191 6.36598 6.41675C8.11598 5.25008 11.0327 4.66675 11.0327 4.66675L12.1993 7.00008H14.5327" stroke="#484848" stroke-width="1.75" stroke-linecap="round" stroke-linejoin="round"/>
<path d="M10.4165 16.3334C9.4505 16.3334 8.6665 15.2892 8.6665 14.0001C8.6665 12.7109 9.4505 11.6667 10.4165 11.6667C11.3825 11.6667 12.1665 12.7109 12.1665 14.0001C12.1665 15.2892 11.3825 16.3334 10.4165 16.3334ZM18.5832 16.3334C17.6172 16.3334 16.8332 15.2892 16.8332 14.0001C16.8332 12.7109 17.6172 11.6667 18.5832 11.6667C19.5492 11.6667 20.3332 12.7109 20.3332 14.0001C20.3332 15.2892 19.5492 16.3334 18.5832 16.3334Z" stroke="#484848" stroke-width="1.75" stroke-linecap="round" stroke-linejoin="round"/>
</svg>
