<svg width="29" height="28" viewBox="0 0 29 28" fill="none" xmlns="http://www.w3.org/2000/svg">
<path d="M6.9165 18.6667C12.7498 21.5833 16.2498 21.5833 22.0832 18.6667" stroke="#484848" stroke-width="1.75" stroke-linecap="round" stroke-linejoin="round"/>
<path d="M18.5833 20.4167L19.75 22.75C19.75 22.75 24.6162 21.2007 26.1667 18.6667C26.1667 17.5 26.785 9.16184 22.6667 6.41667C20.9167 5.25001 18 4.66667 18 4.66667L16.8333 7.00001H14.5" stroke="#484848" stroke-width="1.75" stroke-linecap="round" stroke-linejoin="round"/>
<path d="M10.4493 20.4167L9.28265 22.75C9.28265 22.75 4.41648 21.2007 2.86598 18.6667C2.86598 17.5 2.24765 9.16184 6.36598 6.41667C8.11598 5.25001 11.0327 4.66667 11.0327 4.66667L12.1993 7.00001H14.5327" stroke="#484848" stroke-width="1.75" stroke-linecap="round" stroke-linejoin="round"/>
<path d="M10.4165 16.3333C9.4505 16.3333 8.6665 15.2892 8.6665 14C8.6665 12.7108 9.4505 11.6667 10.4165 11.6667C11.3825 11.6667 12.1665 12.7108 12.1665 14C12.1665 15.2892 11.3825 16.3333 10.4165 16.3333ZM18.5832 16.3333C17.6172 16.3333 16.8332 15.2892 16.8332 14C16.8332 12.7108 17.6172 11.6667 18.5832 11.6667C19.5492 11.6667 20.3332 12.7108 20.3332 14C20.3332 15.2892 19.5492 16.3333 18.5832 16.3333Z" stroke="#484848" stroke-width="1.75" stroke-linecap="round" stroke-linejoin="round"/>
</svg>
