<svg width="36" height="37" viewBox="0 0 36 37" fill="none" xmlns="http://www.w3.org/2000/svg">
<path d="M18 5C10.557 5 4.5 11.057 4.5 18.5C4.5 25.943 10.557 32 18 32C25.443 32 31.5 25.943 31.5 18.5C31.5 11.057 25.443 5 18 5ZM18 7.25C24.2269 7.25 29.25 12.2731 29.25 18.5C29.2527 21.1932 28.287 23.7976 26.529 25.8379C24.771 27.8782 22.338 29.2184 19.674 29.6139V21.7805H22.878L23.3809 18.5259H19.674V16.7484C19.674 15.3984 20.1184 14.198 21.3818 14.198H23.4124V11.3585C23.0558 11.3101 22.3009 11.2055 20.8744 11.2055C17.8954 11.2055 16.1494 12.7783 16.1494 16.3625V18.5259H13.0871V21.7805H16.1494V29.5858C13.5222 29.1533 11.1344 27.8009 9.41253 25.7701C7.69066 23.7394 6.74695 21.1625 6.75 18.5C6.75 12.2731 11.7731 7.25 18 7.25Z" fill="white"/>
</svg>
