<svg width="29" height="28" viewBox="0 0 29 28" fill="none" xmlns="http://www.w3.org/2000/svg">
<path d="M24.7364 17.5328L19.5695 15.2173C19.3354 15.117 19.08 15.0766 18.8264 15.0999C18.5728 15.1232 18.329 15.2094 18.117 15.3507C18.0955 15.3645 18.0751 15.3799 18.0558 15.3967L15.3553 17.6935C15.3273 17.7088 15.2961 17.7174 15.2642 17.7185C15.2323 17.7196 15.2006 17.7133 15.1716 17.7001C13.4358 16.8623 11.6377 15.0751 10.7966 13.3634C10.7826 13.3348 10.7753 13.3033 10.7753 13.2715C10.7753 13.2397 10.7826 13.2082 10.7966 13.1796L13.1011 10.4453C13.1176 10.425 13.133 10.4038 13.147 10.3818C13.2864 10.1691 13.3705 9.92501 13.3919 9.67161C13.4133 9.41821 13.3712 9.16348 13.2695 8.93041L10.9705 3.77228C10.8399 3.46779 10.6141 3.21386 10.327 3.0486C10.0398 2.88334 9.70685 2.81566 9.37798 2.85572C7.9487 3.04362 6.63673 3.74553 5.68726 4.83027C4.73778 5.91501 4.21577 7.30836 4.21876 8.74994C4.21876 17.314 11.186 24.2812 19.75 24.2812C21.1915 24.284 22.5848 23.7619 23.6694 22.8124C24.7541 21.863 25.4561 20.5512 25.6442 19.122C25.6842 18.7946 25.6175 18.4631 25.4539 18.1768C25.2903 17.8905 25.0387 17.6646 24.7364 17.5328ZM19.75 22.9687C11.91 22.9687 5.53126 16.5899 5.53126 8.74994C5.52761 7.62768 5.93267 6.54247 6.67078 5.69708C7.40889 4.85168 8.42954 4.30394 9.54204 4.15619H9.5672C9.61128 4.15701 9.65408 4.17113 9.68999 4.1967C9.7259 4.22227 9.75325 4.25809 9.76845 4.29947L12.0763 9.45213C12.0894 9.48077 12.0962 9.51193 12.0962 9.54346C12.0962 9.57498 12.0894 9.60614 12.0763 9.63478L9.76736 12.3757C9.75013 12.3953 9.73441 12.4161 9.72033 12.4381C9.57585 12.6586 9.49077 12.9128 9.47333 13.1759C9.45589 13.4389 9.50669 13.7021 9.62079 13.9398C10.591 15.926 12.5925 17.9123 14.6006 18.8824C14.8397 18.9959 15.1041 19.0455 15.3681 19.0263C15.6321 19.0071 15.8865 18.9199 16.1067 18.7731C16.1275 18.7588 16.1483 18.7435 16.168 18.7271L18.8674 16.4303C18.894 16.4159 18.9235 16.4075 18.9537 16.4056C18.9839 16.4038 19.0141 16.4084 19.0424 16.4193L24.2103 18.7348C24.2525 18.7528 24.288 18.7836 24.3118 18.8228C24.3355 18.8621 24.3463 18.9078 24.3427 18.9535C24.1957 20.0665 23.6485 21.088 22.8033 21.8269C21.958 22.5658 20.8727 22.9717 19.75 22.9687Z" fill="#484848"/>
</svg>
