<svg width="29" height="28" viewBox="0 0 29 28" fill="none" xmlns="http://www.w3.org/2000/svg">
<path d="M24.7364 17.5328L19.5695 15.2173C19.3354 15.117 19.08 15.0767 18.8264 15.1C18.5728 15.1233 18.329 15.2095 18.117 15.3508C18.0955 15.3646 18.0751 15.3799 18.0558 15.3967L15.3553 17.6936C15.3273 17.7089 15.2961 17.7174 15.2642 17.7186C15.2323 17.7197 15.2006 17.7134 15.1716 17.7002C13.4358 16.8623 11.6377 15.0752 10.7966 13.3634C10.7826 13.3348 10.7753 13.3034 10.7753 13.2716C10.7753 13.2397 10.7826 13.2083 10.7966 13.1797L13.1011 10.4453C13.1176 10.4251 13.133 10.4039 13.147 10.3819C13.2864 10.1691 13.3705 9.92507 13.3919 9.67167C13.4133 9.41828 13.3712 9.16354 13.2695 8.93047L10.9705 3.77235C10.8399 3.46786 10.6141 3.21392 10.327 3.04866C10.0398 2.8834 9.70685 2.81572 9.37798 2.85578C7.9487 3.04369 6.63673 3.74559 5.68726 4.83033C4.73778 5.91507 4.21577 7.30842 4.21876 8.75C4.21876 17.3141 11.186 24.2812 19.75 24.2812C21.1915 24.284 22.5848 23.7619 23.6694 22.8125C24.7541 21.8631 25.4561 20.5512 25.6442 19.122C25.6842 18.7947 25.6175 18.4632 25.4539 18.1769C25.2903 17.8905 25.0387 17.6646 24.7364 17.5328ZM19.75 22.9688C11.91 22.9688 5.53126 16.59 5.53126 8.75C5.52761 7.62774 5.93267 6.54253 6.67078 5.69714C7.40889 4.85175 8.42954 4.304 9.54204 4.15625H9.5672C9.61128 4.15707 9.65408 4.1712 9.68999 4.19676C9.7259 4.22233 9.75325 4.25815 9.76845 4.29953L12.0763 9.45219C12.0894 9.48084 12.0962 9.51199 12.0962 9.54352C12.0962 9.57504 12.0894 9.6062 12.0763 9.63484L9.76736 12.3758C9.75013 12.3953 9.73441 12.4162 9.72033 12.4381C9.57585 12.6587 9.49077 12.9128 9.47333 13.1759C9.45589 13.439 9.50669 13.7021 9.62079 13.9398C10.591 15.9261 12.5925 17.9123 14.6006 18.8825C14.8397 18.996 15.1041 19.0455 15.3681 19.0264C15.6321 19.0072 15.8865 18.92 16.1067 18.7731C16.1275 18.7589 16.1483 18.7436 16.168 18.7272L18.8674 16.4303C18.894 16.416 18.9235 16.4076 18.9537 16.4057C18.9839 16.4038 19.0141 16.4085 19.0424 16.4194L24.2103 18.7348C24.2525 18.7528 24.288 18.7836 24.3118 18.8229C24.3355 18.8621 24.3463 18.9079 24.3427 18.9536C24.1957 20.0666 23.6485 21.088 22.8033 21.827C21.958 22.5659 20.8727 22.9718 19.75 22.9688Z" fill="#484848"/>
</svg>
