<svg width="28" height="28" viewBox="0 0 28 28" fill="none" xmlns="http://www.w3.org/2000/svg">
<path d="M24.2364 17.5328L19.0695 15.2173C18.8354 15.117 18.58 15.0767 18.3264 15.1C18.0728 15.1233 17.829 15.2095 17.617 15.3508C17.5955 15.3646 17.5751 15.3799 17.5558 15.3967L14.8553 17.6936C14.8273 17.7089 14.7961 17.7174 14.7642 17.7186C14.7323 17.7197 14.7006 17.7134 14.6716 17.7002C12.9358 16.8623 11.1377 15.0752 10.2966 13.3634C10.2826 13.3348 10.2753 13.3034 10.2753 13.2716C10.2753 13.2397 10.2826 13.2083 10.2966 13.1797L12.6011 10.4453C12.6176 10.4251 12.633 10.4039 12.647 10.3819C12.7864 10.1691 12.8705 9.92507 12.8919 9.67167C12.9133 9.41828 12.8712 9.16354 12.7695 8.93047L10.4705 3.77235C10.3399 3.46786 10.1141 3.21392 9.82698 3.04866C9.53984 2.8834 9.20685 2.81572 8.87798 2.85578C7.4487 3.04369 6.13673 3.74559 5.18726 4.83033C4.23778 5.91507 3.71577 7.30842 3.71876 8.75C3.71876 17.3141 10.686 24.2812 19.25 24.2812C20.6915 24.284 22.0848 23.7619 23.1694 22.8125C24.2541 21.8631 24.9561 20.5512 25.1442 19.122C25.1842 18.7947 25.1175 18.4632 24.9539 18.1769C24.7903 17.8905 24.5387 17.6646 24.2364 17.5328ZM19.25 22.9688C11.41 22.9688 5.03126 16.59 5.03126 8.75C5.02761 7.62774 5.43267 6.54253 6.17078 5.69714C6.90889 4.85175 7.92954 4.304 9.04204 4.15625H9.0672C9.11128 4.15707 9.15408 4.1712 9.18999 4.19676C9.2259 4.22233 9.25325 4.25815 9.26845 4.29953L11.5763 9.45219C11.5894 9.48084 11.5962 9.51199 11.5962 9.54352C11.5962 9.57504 11.5894 9.6062 11.5763 9.63484L9.26736 12.3758C9.25013 12.3953 9.23441 12.4162 9.22033 12.4381C9.07585 12.6587 8.99077 12.9128 8.97333 13.1759C8.95589 13.439 9.00669 13.7021 9.12079 13.9398C10.091 15.9261 12.0925 17.9123 14.1006 18.8825C14.3397 18.996 14.6041 19.0455 14.8681 19.0264C15.1321 19.0072 15.3865 18.92 15.6067 18.7731C15.6275 18.7589 15.6483 18.7436 15.668 18.7272L18.3674 16.4303C18.394 16.416 18.4235 16.4076 18.4537 16.4057C18.4839 16.4038 18.5141 16.4085 18.5424 16.4194L23.7103 18.7348C23.7525 18.7528 23.788 18.7836 23.8118 18.8229C23.8355 18.8621 23.8463 18.9079 23.8427 18.9536C23.6957 20.0666 23.1485 21.088 22.3033 21.827C21.458 22.5659 20.3727 22.9718 19.25 22.9688Z" fill="#484848"/>
</svg>
