<svg width="28" height="28" viewBox="0 0 28 28" fill="none" xmlns="http://www.w3.org/2000/svg">
<path d="M24.2364 17.5328L19.0695 15.2173C18.8354 15.117 18.58 15.0766 18.3264 15.0999C18.0728 15.1232 17.8289 15.2094 17.617 15.3507C17.5955 15.3645 17.5751 15.3799 17.5558 15.3967L14.8553 17.6935C14.8273 17.7088 14.7961 17.7174 14.7642 17.7185C14.7323 17.7196 14.7006 17.7133 14.6716 17.7001C12.9358 16.8623 11.1377 15.0751 10.2966 13.3634C10.2826 13.3348 10.2753 13.3033 10.2753 13.2715C10.2753 13.2397 10.2826 13.2082 10.2966 13.1796L12.6011 10.4453C12.6176 10.425 12.633 10.4038 12.647 10.3818C12.7864 10.1691 12.8705 9.92501 12.8919 9.67161C12.9133 9.41821 12.8712 9.16348 12.7695 8.93041L10.4705 3.77228C10.3399 3.46779 10.1141 3.21386 9.82697 3.0486C9.53983 2.88334 9.20684 2.81566 8.87797 2.85572C7.44868 3.04362 6.13672 3.74553 5.18724 4.83027C4.23777 5.91501 3.71576 7.30836 3.71875 8.74994C3.71875 17.314 10.6859 24.2812 19.25 24.2812C20.6915 24.284 22.0847 23.7619 23.1694 22.8124C24.2541 21.863 24.9561 20.5512 25.1442 19.122C25.1842 18.7946 25.1174 18.4631 24.9539 18.1768C24.7903 17.8905 24.5387 17.6646 24.2364 17.5328ZM19.25 22.9687C11.41 22.9687 5.03125 16.5899 5.03125 8.74994C5.0276 7.62768 5.43266 6.54247 6.17077 5.69708C6.90888 4.85168 7.92953 4.30394 9.04203 4.15619H9.06719C9.11127 4.15701 9.15406 4.17113 9.18998 4.1967C9.22589 4.22227 9.25324 4.25809 9.26844 4.29947L11.5763 9.45213C11.5894 9.48077 11.5962 9.51193 11.5962 9.54346C11.5962 9.57498 11.5894 9.60614 11.5763 9.63478L9.26735 12.3757C9.25012 12.3953 9.2344 12.4161 9.22031 12.4381C9.07584 12.6586 8.99076 12.9128 8.97332 13.1759C8.95588 13.4389 9.00668 13.7021 9.12078 13.9398C10.0909 15.926 12.0925 17.9123 14.1006 18.8824C14.3397 18.9959 14.6041 19.0455 14.8681 19.0263C15.1321 19.0071 15.3865 18.9199 15.6067 18.7731C15.6275 18.7588 15.6483 18.7435 15.668 18.7271L18.3673 16.4303C18.394 16.4159 18.4234 16.4075 18.4537 16.4056C18.4839 16.4038 18.5141 16.4084 18.5423 16.4193L23.7103 18.7348C23.7525 18.7528 23.788 18.7836 23.8118 18.8228C23.8355 18.8621 23.8463 18.9078 23.8427 18.9535C23.6957 20.0665 23.1485 21.088 22.3032 21.8269C21.458 22.5658 20.3727 22.9717 19.25 22.9687Z" fill="#484848"/>
</svg>
